<svg xmlns="http://www.w3.org/2000/svg" viewBox="0 0 192 192">
  <defs>
    <linearGradient id="grad1" x1="0%" y1="0%" x2="100%" y2="100%">
      <stop offset="0%" style="stop-color:#e91e63;stop-opacity:1" />
      <stop offset="100%" style="stop-color:#ff6b9d;stop-opacity:1" />
    </linearGradient>
  </defs>

  <!-- Background -->
  <rect width="192" height="192" rx="40" fill="#0f0f1e"/>

  <!-- Heart -->
  <path d="M96 160 C96 160, 50 120, 50 88 C50 65, 65 50, 80 50 C88 50, 96 56, 96 56 C96 56, 104 50, 112 50 C127 50, 142 65, 142 88 C142 120, 96 160, 96 160 Z" fill="url(#grad1)"/>

  <!-- Sparkles -->
  <circle cx="60" cy="50" r="3" fill="#ffd93d" opacity="0.8"/>
  <circle cx="132" cy="55" r="2.5" fill="#ffd93d" opacity="0.8"/>
  <circle cx="68" cy="145" r="2" fill="#ffd93d" opacity="0.6"/>
  <circle cx="124" cy="140" r="2.5" fill="#ffd93d" opacity="0.7"/>

  <!-- Star sparkle -->
  <path d="M150 75 L152 80 L157 80 L153 83 L155 88 L150 85 L145 88 L147 83 L143 80 L148 80 Z" fill="#ffd93d" opacity="0.9"/>
</svg>
